<svg width="240" height="240" viewBox="0 0 240 240" fill="none" xmlns="http://www.w3.org/2000/svg">
<path d="M44.172 206.38C44.172 200.419 39.3395 195.586 33.3787 195.586C27.418 195.586 22.5865 200.419 22.5865 206.38C22.5865 212.34 27.418 217.172 33.3787 217.172C39.3395 217.172 44.172 212.34 44.172 206.38ZM65.7584 206.38C65.7584 224.262 51.2619 238.758 33.3787 238.758C15.4965 238.758 1 224.262 1 206.38C1 188.497 15.4965 174 33.3787 174C51.2619 174 65.7584 188.497 65.7584 206.38Z" fill="#0F4C81"/>
<path d="M217.132 119.879L157.08 108.525C150.676 107.316 144.785 104.202 140.175 99.5931C135.854 95.2711 132.847 89.8226 131.492 83.8812L131.244 82.6886L119.89 22.6369L119.884 22.6103L119.879 22.6369L108.525 82.6886C107.316 89.0928 104.202 94.9837 99.5931 99.5931C95.272 103.913 89.8226 106.916 83.8812 108.272L82.6886 108.525L22.6369 119.879L22.6103 119.884L22.6369 119.89L82.6886 131.244L83.8812 131.492C89.8226 132.847 95.2711 135.854 99.5931 140.175C104.202 144.785 107.316 150.676 108.525 157.08L119.879 217.132L119.884 217.158L119.89 217.132L131.244 157.08C132.453 150.676 135.567 144.785 140.175 140.175C144.785 135.567 150.676 132.453 157.08 131.244L217.132 119.89L217.158 119.884L217.132 119.879ZM195.521 55.0524V44.2473H184.716C178.748 44.2473 173.911 39.4092 173.911 33.4421C173.911 27.4749 178.748 22.6369 184.716 22.6369H195.521V11.8318C195.521 5.86371 200.358 1.02662 206.326 1.02662C212.294 1.02662 217.132 5.86463 217.132 11.8318V22.6369H227.937C233.904 22.6369 238.742 27.4749 238.742 33.4421C238.742 39.4092 233.904 44.2473 227.937 44.2473H217.132V55.0524C217.132 61.0196 212.294 65.8575 206.326 65.8575C200.359 65.8575 195.521 61.0205 195.521 55.0524ZM238.769 119.884C238.769 124.927 237.005 129.812 233.783 133.691C230.56 137.571 226.082 140.199 221.126 141.126L221.12 141.12L161.095 152.48H161.09C158.955 152.883 156.991 153.919 155.455 155.455C153.919 156.991 152.883 158.955 152.48 161.09V161.095L141.12 221.12L141.126 221.126C140.199 226.082 137.571 230.56 133.691 233.783C129.812 237.005 124.927 238.769 119.884 238.769C114.842 238.769 109.957 237.004 106.077 233.783C102.201 230.564 99.572 226.092 98.643 221.142V221.147L87.2888 161.095V161.09C86.8858 158.955 85.8494 156.991 84.3135 155.455C82.7777 153.919 80.8131 152.883 78.6787 152.48H78.6732L18.6169 141.12V141.115C13.6706 140.185 9.20164 137.564 5.98579 133.691C2.76353 129.812 1 124.927 1 119.884C1 114.842 2.76353 109.957 5.98579 106.077C9.20255 102.204 13.6697 99.5729 18.6169 98.643L78.6732 87.2888H78.6787C80.8131 86.8858 82.7777 85.8494 84.3135 84.3135C85.8494 82.7777 86.8858 80.8131 87.2888 78.6787V78.6732L98.643 18.6169C99.5729 13.6697 102.204 9.20255 106.077 5.98579C109.957 2.76353 114.842 1 119.884 1C124.927 1 129.812 2.76353 133.691 5.98579C137.564 9.20255 140.19 13.6697 141.12 18.6169L152.48 78.6732V78.6787C152.883 80.8131 153.919 82.7777 155.455 84.3135C156.991 85.8494 158.955 86.8858 161.09 87.2888H161.095L221.147 98.643H221.142C226.092 99.572 230.564 102.201 233.783 106.077C237.004 109.957 238.769 114.842 238.769 119.884Z" fill="#0F4C81"/>
</svg>
